<?xml version="1.0" encoding="utf-8"?>
<!-- Generator: Adobe Illustrator 16.0.0, SVG Export Plug-In . SVG Version: 6.00 Build 0)  -->
<!DOCTYPE svg PUBLIC "-//W3C//DTD SVG 1.1//EN" "http://www.w3.org/Graphics/SVG/1.1/DTD/svg11.dtd">
<svg version="1.1" id="Layer_1" xmlns="http://www.w3.org/2000/svg" xmlns:xlink="http://www.w3.org/1999/xlink" x="0px" y="0px"
	 width="357.333px" height="316.667px" viewBox="0 0 357.333 316.667" enable-background="new 0 0 357.333 316.667"
	 xml:space="preserve">
<path fill-rule="evenodd" clip-rule="evenodd" fill="#0D0D0D" d="M338.094,275.647c-18.994,0-18.698-0.007-37.693,0.019
	c-1.93,0.003-3.896-0.413-5.521,1.429c-9.644,10.939-22.563,14.726-36.394,16.582c-7.631,1.023-15.281,1.018-22.945,0.939
	c-9.473-0.096-18.898-0.725-28.389,0.957c-9.267,1.644-17.541-1.207-23.7-8.675c-2.025-2.455-3.135-1.826-4.833,0.265
	c-6.188,7.626-14.542,10.093-23.761,8.157c-9.118-1.913-18.181-1.665-27.329-1.421c-13.691,0.366-27.329,0.129-40.533-4.22
	c-7.058-2.325-13.565-5.712-18.665-11.16c-2.198-2.348-4.446-2.92-7.426-2.914c-36.49,0.068-2.756,0.046-39.246,0.042
	c-1.499,0-3.019,0.104-4.492-0.102c-2.223-0.311-3.708-1.72-3.834-3.958c-0.14-2.494,1.358-4.084,3.764-4.529
	c1.455-0.27,2.988-0.142,4.485-0.143c34.49-0.006-1.242-0.096,33.247,0.103c4.649,0.027,4.921-1.009,3.681-5.13
	c-4.434-14.73,0.062-28.256,6.531-41.343c2.584-5.228,5.609-10.25,9.302-14.763c1.932-2.36,1.812-3.952,0.146-6.435
	c-12.151-18.111-18.389-38.024-16.741-59.93c1.452-19.31,8.182-36.952,18.635-53.161c1.8-2.792,1.954-4.271-0.639-6.91
	c-16.644-16.948-15.044-43.802,3.218-58.824C96.99,5.695,123.422,9.292,136.97,28.671c2.205,3.154,3.821,3.646,7.457,2.396
	c39.021-13.416,75.73-8.375,109.958,14.553c2.468,1.652,3.629,1.397,5.758-0.479c18.595-16.395,45.368-13.568,59.683,6.143
	c13.697,18.861,8.135,45.277-12.408,57.659c-3.008,1.812-3.166,3.238-2.217,6.203c6.622,20.676,8.855,41.632,3.307,62.962
	c-2.494,9.583-6.252,18.702-12.11,26.663c-2.978,4.047-2.623,6.797-0.12,10.854c6.977,11.309,10.562,23.668,9.216,37.127
	c-0.231,2.311-0.628,4.634-1.241,6.87c-2,7.304-2.052,7.29,5.85,7.29c34.657,0-6.961-0.001,27.696,0.006
	c1.497,0,3.022-0.096,4.485,0.151c2.213,0.374,3.659,1.88,3.719,4.089c0.067,2.475-1.472,4.02-3.914,4.398
	C340.782,275.757,339.426,275.647,338.094,275.647C319.099,275.651,338.094,275.647,338.094,275.647z M185.221,31.089
	c-3.658,0.182-7.319,0.336-10.975,0.558c-1.494,0.091-2.987,0.27-4.465,0.509c-39.361,6.364-68.708,27.631-89.12,61.25
	c-13.547,22.312-20.011,46.453-13.233,72.636c7.443,28.756,25.934,48.915,50.621,64.154c3.063,1.892,6.17,2.853,9.804,3.003
	c14.452,0.602,27.899,4.366,39.481,13.472c1.351,1.062,2.825,1.745,4.545,1.856c5.648,0.365,11.297,0.717,16.945,1.09
	c1.896,0.126,3.452-0.338,5.025-1.601c13.04-10.463,28.434-14.205,44.519-12.617c9.517,0.939,16.823-1.639,23.985-6.833
	c2.291-1.662,4.65-3.239,6.849-5.016c19.75-15.968,32.412-35.945,34.639-61.736c1.87-21.665-2.747-42.19-12.476-61.353
	C269.362,57.125,234.498,32.997,185.221,31.089z M107.461,232.606c-8.512-6.328-17.083-12.291-22.76-21.335
	c-2.166-3.451-4.029-1.716-5.569,0.595c-5.828,8.739-11.081,17.794-13.429,28.168c-3.828,16.91,0.463,30.896,16.476,39.23
	c15.669,8.155,32.968,8.209,50.111,6.907c6.369-0.484,12.597-0.648,18.748,0.854c4.478,1.094,8.943,0.712,13.393,0.575
	c4.184-0.128,9.879-5.784,10.276-9.557c1.077-10.223-3.398-18.037-10.922-24.305c-11.496-9.577-25.063-13.214-39.779-13.061
	c-4.96,0.052-9.944-0.555-14.887,0.798c-2.51,0.687-5.247,0.26-6.182-2.717c-0.875-2.784,0.911-4.304,3.388-5.178
	C106.713,233.446,106.998,233.016,107.461,232.606z M232.887,286.738c12.186-0.141,22.825,0.544,33.31-2.026
	c12.113-2.97,22.682-8.323,27.97-20.218c7.329-16.485,3.889-32.077-5.444-46.838c-2.087-3.302-3.597-1.158-4.915,0.451
	c-5.388,6.577-11.033,12.868-18.214,17.567c-1.406,0.92-1.975,1.875-1.661,3.697c1.031,5.989-0.485,7.311-6.636,5.979
	c-11.581-2.505-23.205-3.904-35.011-1.691c-13.393,2.509-24.904,8.114-32.291,20.146c-2.928,4.769-5.293,10.451-2.575,15.549
	c3.047,5.715,8.394,9.195,15.695,8.424C213.526,286.678,223.986,286.293,232.887,286.738z M287.147,42.525
	c-8.796,0.09-12.107,1.104-19.149,5.938c-4.771,3.274-4.849,3.656-0.538,7.468c12.725,11.247,22.467,24.751,30.176,39.784
	c4.297,8.379,5.6,8.634,12.498,1.979c0.359-0.348,0.741-0.68,1.052-1.067c8.606-10.712,11.413-22.644,5.626-35.344
	C311.153,48.865,301.036,42.413,287.147,42.525z M104.215,19.608c-2.802,0.216-5.627-0.286-8.435,0.483
	c-23.682,6.491-31.775,35.343-15.067,53.38c1.928,2.081,2.809,2.095,4.508,0.039c12.091-14.627,26.028-27.095,43.142-35.585
	c4.134-2.051,3.646-4.136,1.216-6.785C122.776,23.723,114.813,18.75,104.215,19.608z M180.545,264.118
	c1.797-2.899,4.548-4.47,3.306-6.866c-0.699-1.351-4.053-1.293-5.02-0.217C176.785,259.31,179.946,260.886,180.545,264.118z"/>
<path fill-rule="evenodd" clip-rule="evenodd" fill="#FCFCFC" d="M185.221,31.089c49.276,1.907,84.141,26.035,106.144,69.372
	c9.729,19.162,14.346,39.688,12.476,61.353c-2.227,25.791-14.889,45.769-34.639,61.736c-2.198,1.776-4.558,3.354-6.849,5.016
	c-7.162,5.194-14.469,7.772-23.985,6.833c-16.085-1.588-31.479,2.154-44.519,12.617c-1.573,1.263-3.13,1.727-5.025,1.601
	c-5.647-0.373-11.296-0.725-16.945-1.09c-1.72-0.111-3.195-0.794-4.545-1.856c-11.582-9.105-25.029-12.87-39.481-13.472
	c-3.633-0.15-6.74-1.111-9.804-3.003c-24.687-15.239-43.177-35.398-50.621-64.154c-6.778-26.183-0.313-50.323,13.233-72.636
	c20.412-33.619,49.759-54.886,89.12-61.25c1.478-0.239,2.971-0.418,4.465-0.509C177.902,31.425,181.563,31.271,185.221,31.089z
	 M269.358,161.119c0.054-23.853-14.601-40.403-38.258-43.211c-12.034-1.428-23.297,6.907-25.434,18.919
	c-1.12,6.294-0.141,11.854,5.535,15.927c3.072,2.205,4.791,5.496,5.475,9.225c0.988,5.388,1.625,10.853,2.881,16.174
	c1.881,7.978,7.226,12.507,15.279,13.681C253.893,194.61,269.313,180.849,269.358,161.119z M140.76,106.639
	c-23.114-0.064-41.915,18.811-41.828,41.992c0.057,15.238,12.131,28.304,27.134,29.376c8.334,0.597,14.591-2.736,18.459-10.115
	c1.767-3.371,3.004-7.02,4.492-10.537c2.255-5.329,5.185-9.881,10.977-12.23c4.895-1.986,7.091-6.333,7.673-11.435
	C169.482,117.781,158.426,106.689,140.76,106.639z M194.852,183.894c3.946,0.027,7.526-1.27,10.916-3.116
	c2.023-1.104,2.805-2.958,1.788-5.069c-1.055-2.188-2.923-2.409-5.073-1.456c-1.82,0.806-3.648,1.729-5.572,2.14
	c-6.582,1.402-11.587-3.904-10.429-10.436c0.458-2.582,2.349-2.903,3.875-4.015c3.771-2.747,7.202-6.072,6.132-11.104
	c-1.035-4.861-5.635-5.583-9.791-6.264c-2.786-0.456-5.573-0.806-8.43-0.206c-5.265,1.106-7.305,4.298-5.787,9.432
	c0.765,2.587,1.753,5.34,4.027,6.732c4.166,2.55,3.245,6.219,1.68,9.043c-1.845,3.329-5.541,4.76-9.524,3.708
	c-2.587-0.684-4.849-2.123-6.822-4.002c-1.883-1.793-3.975-1.885-5.656,0.144c-1.549,1.869-0.758,3.641,0.779,5.302
	c5.524,5.971,13.916,7.772,21.411,4.111c2.363-1.153,3.76-1,5.601,0.813C186.929,182.56,190.694,183.844,194.852,183.894z"/>
<path fill-rule="evenodd" clip-rule="evenodd" fill="#2C2C2C" d="M107.461,232.606c-0.464,0.41-0.749,0.84-1.137,0.977
	c-2.477,0.874-4.262,2.394-3.388,5.178c0.935,2.977,3.671,3.403,6.182,2.717c4.943-1.353,9.927-0.746,14.887-0.798
	c14.716-0.153,28.284,3.483,39.779,13.061c7.524,6.268,12,14.082,10.922,24.305c-0.397,3.772-6.093,9.429-10.276,9.557
	c-4.45,0.137-8.915,0.519-13.393-0.575c-6.151-1.503-12.379-1.339-18.748-0.854c-17.143,1.302-34.442,1.248-50.111-6.907
	c-16.013-8.334-20.304-22.32-16.476-39.23c2.348-10.374,7.601-19.429,13.429-28.168c1.541-2.311,3.404-4.046,5.569-0.595
	C90.378,220.315,98.949,226.278,107.461,232.606z"/>
<path fill-rule="evenodd" clip-rule="evenodd" fill="#2C2C2C" d="M232.887,286.738c-8.901-0.444-19.361-0.06-29.772,1.04
	c-7.302,0.771-12.648-2.709-15.695-8.424c-2.718-5.098-0.353-10.78,2.575-15.549c7.387-12.031,18.898-17.637,32.291-20.146
	c11.806-2.213,23.43-0.813,35.011,1.691c6.15,1.331,7.667,0.01,6.636-5.979c-0.313-1.822,0.255-2.777,1.661-3.697
	c7.181-4.699,12.826-10.99,18.214-17.567c1.318-1.609,2.828-3.753,4.915-0.451c9.333,14.761,12.773,30.353,5.444,46.838
	c-5.288,11.895-15.856,17.248-27.97,20.218C255.712,287.282,245.073,286.597,232.887,286.738z"/>
<path fill-rule="evenodd" clip-rule="evenodd" fill="#2C2C2C" d="M287.147,42.525c13.889-0.112,24.006,6.34,29.664,18.758
	c5.787,12.7,2.98,24.632-5.626,35.344c-0.311,0.388-0.692,0.72-1.052,1.067c-6.898,6.655-8.201,6.4-12.498-1.979
	c-7.709-15.033-17.451-28.537-30.176-39.784c-4.311-3.812-4.233-4.193,0.538-7.468C275.04,43.629,278.351,42.615,287.147,42.525z"/>
<path fill-rule="evenodd" clip-rule="evenodd" fill="#2C2C2C" d="M104.215,19.608c10.598-0.858,18.562,4.115,25.364,11.532
	c2.43,2.649,2.917,4.734-1.216,6.785c-17.113,8.49-31.05,20.958-43.142,35.585c-1.699,2.056-2.581,2.042-4.508-0.039
	c-16.708-18.037-8.614-46.889,15.067-53.38C98.588,19.322,101.413,19.824,104.215,19.608z"/>
<path fill-rule="evenodd" clip-rule="evenodd" fill="#FFFFFF" d="M180.545,264.118c-0.599-3.231-3.76-4.808-1.714-7.083
	c0.967-1.076,4.321-1.134,5.02,0.217C185.093,259.648,182.342,261.218,180.545,264.118z"/>
<path fill-rule="evenodd" clip-rule="evenodd" fill="#303030" d="M269.358,161.119c-0.045,19.73-15.465,33.491-34.521,30.714
	c-8.054-1.174-13.398-5.703-15.279-13.681c-1.256-5.321-1.893-10.786-2.881-16.174c-0.684-3.729-2.402-7.02-5.475-9.225
	c-5.676-4.072-6.655-9.633-5.535-15.927c2.137-12.012,13.399-20.347,25.434-18.919C254.757,120.715,269.412,137.266,269.358,161.119
	z M239.094,141.601c-6.242-0.014-10.38,3.748-10.43,9.482c-0.047,5.451,4.629,10.47,9.84,10.56
	c5.839,0.101,10.138-4.055,10.206-9.867C248.784,145.645,244.975,141.615,239.094,141.601z"/>
<path fill-rule="evenodd" clip-rule="evenodd" fill="#2F2F2F" d="M140.76,106.639c17.666,0.05,28.723,11.142,26.907,27.051
	c-0.583,5.102-2.779,9.448-7.673,11.435c-5.792,2.35-8.721,6.901-10.977,12.23c-1.488,3.518-2.726,7.166-4.492,10.537
	c-3.868,7.379-10.125,10.712-18.459,10.115c-15.003-1.072-27.077-14.138-27.134-29.376
	C98.845,125.45,117.646,106.575,140.76,106.639z M132.094,147.736c5.875-0.021,9.637-3.993,9.6-10.135
	c-0.035-5.808-4.264-9.967-10.09-9.923c-5.894,0.045-10.042,4.478-9.954,10.634C121.732,143.993,125.906,147.758,132.094,147.736z"
	/>
<path fill-rule="evenodd" clip-rule="evenodd" fill="#0C0C0C" d="M194.852,183.894c-4.158-0.05-7.923-1.334-10.875-4.242
	c-1.84-1.813-3.237-1.967-5.601-0.813c-7.495,3.661-15.887,1.859-21.411-4.111c-1.537-1.661-2.328-3.433-0.779-5.302
	c1.681-2.028,3.773-1.937,5.656-0.144c1.973,1.879,4.234,3.318,6.822,4.002c3.983,1.052,7.679-0.379,9.524-3.708
	c1.565-2.824,2.486-6.493-1.68-9.043c-2.274-1.393-3.262-4.146-4.027-6.732c-1.519-5.134,0.522-8.325,5.787-9.432
	c2.856-0.6,5.644-0.25,8.43,0.206c4.156,0.681,8.756,1.402,9.791,6.264c1.07,5.031-2.361,8.356-6.132,11.104
	c-1.526,1.111-3.417,1.433-3.875,4.015c-1.158,6.531,3.847,11.838,10.429,10.436c1.924-0.41,3.752-1.334,5.572-2.14
	c2.15-0.953,4.019-0.732,5.073,1.456c1.017,2.111,0.235,3.966-1.788,5.069C202.378,182.625,198.798,183.921,194.852,183.894z"/>
<path fill-rule="evenodd" clip-rule="evenodd" fill="#FFFFFF" d="M239.094,141.601c5.881,0.014,9.689,4.044,9.616,10.175
	c-0.068,5.812-4.367,9.968-10.206,9.867c-5.211-0.09-9.887-5.108-9.84-10.56C228.714,145.349,232.852,141.587,239.094,141.601z"/>
<path fill-rule="evenodd" clip-rule="evenodd" fill="#FFFFFF" d="M132.094,147.736c-6.188,0.022-10.362-3.743-10.444-9.424
	c-0.089-6.156,4.06-10.589,9.954-10.634c5.826-0.044,10.055,4.115,10.09,9.923C141.73,143.743,137.969,147.714,132.094,147.736z"/>
</svg>
