<?xml version="1.0" encoding="utf-8"?>
<!-- Generator: Adobe Illustrator 16.0.0, SVG Export Plug-In . SVG Version: 6.00 Build 0)  -->
<!DOCTYPE svg PUBLIC "-//W3C//DTD SVG 1.1//EN" "http://www.w3.org/Graphics/SVG/1.1/DTD/svg11.dtd">
<svg version="1.1" id="Layer_1" xmlns="http://www.w3.org/2000/svg" xmlns:xlink="http://www.w3.org/1999/xlink" x="0px" y="0px"
	 width="825px" height="624px" viewBox="0 0 825 624" enable-background="new 0 0 825 624" xml:space="preserve">
<path fill-rule="evenodd" clip-rule="evenodd" d="M87.82,112.789c0-16.829,0-32.938,0-49.48c41.664,0,82.888,0,124.744,0
	c0,16.123,0,32.354,0,49.182c2.341,0.119,4.089,0.286,5.837,0.286c56.328,0.014,112.656-0.027,168.984,0.1
	c3.751,0.009,5.547-1.29,7.162-4.55c15.011-30.295,30.262-60.472,45.235-90.785c1.745-3.535,3.719-4.666,7.596-4.657
	c59.994,0.129,119.989,0.136,179.982-0.015c3.979-0.01,5.855,1.333,7.547,4.749c15,30.302,30.226,60.49,45.219,90.795
	c1.636,3.306,3.51,4.485,7.216,4.464c28.163-0.162,56.327-0.118,84.491-0.079c24.68,0.034,40.15,15.611,40.152,40.397
	c0.008,139.32,0.008,278.64,0,417.96c-0.001,24.987-15.597,40.68-40.505,40.681c-239.311,0.013-478.62,0.012-717.931,0
	C28.614,611.834,13,596.18,12.997,571.215c-0.012-139.319-0.012-278.64,0.001-417.96C13,128.216,28.465,112.829,53.58,112.792
	C64.725,112.775,75.869,112.789,87.82,112.789z M412.264,586.843c119.664,0,239.327,0.002,358.991-0.004
	c11.183,0,15.709-4.551,15.709-15.778c0.005-139.163,0.004-278.326,0.001-417.489c0-11.449-4.25-15.742-15.604-15.746
	c-33.165-0.011-66.331-0.063-99.497,0.08c-3.684,0.016-5.569-1.129-7.215-4.454c-14.843-30.012-29.989-59.873-44.743-89.928
	c-2.178-4.437-4.673-5.7-9.468-5.682c-48.832,0.196-97.664,0.184-146.496,0.016c-4.553-0.016-6.977,1.206-9.061,5.445
	c-14.624,29.747-29.653,59.294-44.289,89.034c-2.063,4.193-4.397,5.598-9.049,5.592c-115.496-0.138-230.993-0.108-346.489-0.106
	c-13.217,0-17.046,3.776-17.046,16.809c-0.001,138.496-0.001,276.993,0,415.489c0,12.561,4.172,16.722,16.766,16.722
	C173.937,586.844,293.101,586.843,412.264,586.843z M113.341,88.097c0,8.485,0,16.366,0,24.67c24.185,0,47.965,0.024,71.746-0.094
	c0.888-0.004,2.517-1.365,2.536-2.126c0.193-7.426,0.116-14.857,0.116-22.45C162.559,88.097,138.134,88.097,113.341,88.097z"/>
<path fill-rule="evenodd" clip-rule="evenodd" d="M737.034,364.977c-0.902,109.419-91.662,197.859-202.062,196.898
	c-109.765-0.955-198.347-91.462-197.307-201.595c1.038-109.924,90.939-198.389,200.753-197.546
	C649.743,163.588,737.955,253.411,737.034,364.977z M537.419,536.859c96.438-0.047,174.667-78.322,174.596-174.698
	c-0.071-96.464-78.434-174.683-174.791-174.473c-96.701,0.211-174.677,78.227-174.567,174.658
	C362.766,458.849,440.936,536.906,537.419,536.859z"/>
<path fill-rule="evenodd" clip-rule="evenodd" d="M212.495,561.899c-6.457,0-12.575,0-18.693,0c-1.784,0-3.568,0-5.679,0
	c0-133.16,0-265.709,0-398.715c7.984,0,16.012,0,24.372,0C212.495,295.83,212.495,428.384,212.495,561.899z"/>
<path fill-rule="evenodd" clip-rule="evenodd" d="M337.754,162.767c13.745,0.059,24.75,11.05,24.799,24.768
	c0.049,13.818-11.329,25.145-25.144,25.03c-13.693-0.113-24.712-11.187-24.751-24.873
	C312.619,173.723,323.71,162.708,337.754,162.767z"/>
<path fill-rule="evenodd" clip-rule="evenodd" d="M412.429,362.229c0.062-68.819,55.775-124.533,124.657-124.657
	c69.139-0.123,125.036,55.617,125.039,124.688c0.003,69-55.991,124.845-125.071,124.737
	C468.314,486.892,412.368,430.881,412.429,362.229z M537.628,262.517c-55.056-0.32-99.888,44.27-100.092,99.552
	c-0.201,54.668,44.143,99.547,98.729,99.917c55.396,0.376,100.429-43.752,100.83-98.806
	C637.5,307.657,593.217,262.841,537.628,262.517z"/>
</svg>
